<?xml version="1.0" encoding="UTF-8" standalone="no"?>
<!DOCTYPE svg PUBLIC "-//W3C//DTD SVG 1.1//EN" "http://www.w3.org/Graphics/SVG/1.1/DTD/svg11.dtd">
<svg width="100%" height="100%" viewBox="0 0 512 512" version="1.1" xmlns="http://www.w3.org/2000/svg" xmlns:xlink="http://www.w3.org/1999/xlink" xml:space="preserve" xmlns:serif="http://www.serif.com/" style="fill-rule:evenodd;clip-rule:evenodd;stroke-linejoin:round;stroke-miterlimit:2;">
    <path d="M480,448L32,448C14.357,448 0,433.643 0,416L0,117.333C0,99.691 14.357,85.333 32,85.333L480,85.333C497.643,85.333 512,99.691 512,117.333L512,416C512,433.643 497.643,448 480,448ZM32,106.667C26.112,106.667 21.333,111.445 21.333,117.333L21.333,416C21.333,421.888 26.112,426.667 32,426.667L480,426.667C485.888,426.667 490.667,421.888 490.667,416L490.667,117.333C490.667,111.445 485.888,106.667 480,106.667L32,106.667Z" style="fill-rule:nonzero;"/>
    <g transform="matrix(0.43697,0.436814,-0.70698,0.707233,408.075,-119.858)">
        <path d="M501.333,384L10.667,384C4.779,384 0,379.221 0,373.333C0,367.445 4.779,362.667 10.667,362.667L501.333,362.667C507.221,362.667 512,367.445 512,373.333C512,379.221 507.221,384 501.333,384Z" style="fill-rule:nonzero;"/>
    </g>
    <g transform="matrix(0.436885,-0.436899,0.707118,0.707096,-119.833,103.864)">
        <path d="M501.333,384L10.667,384C4.779,384 0,379.221 0,373.333C0,367.445 4.779,362.667 10.667,362.667L501.333,362.667C507.221,362.667 512,367.445 512,373.333C512,379.221 507.221,384 501.333,384Z" style="fill-rule:nonzero;"/>
    </g>
    <path d="M330.667,512L181.333,512C177.024,512 173.12,509.397 171.477,505.408C169.813,501.419 170.731,496.832 173.781,493.781C201.856,465.707 202.219,438.528 202.219,437.376C202.24,431.509 207.019,426.667 212.907,426.667L298.667,426.667C304.533,426.667 309.312,431.403 309.333,437.269C309.355,438.613 310.187,465.771 338.219,493.781C341.269,496.832 342.187,501.419 340.523,505.408C338.88,509.397 334.976,512 330.667,512ZM204.181,490.667L307.797,490.667C295.851,473.579 291.115,457.877 289.237,448L222.464,448C220.651,457.92 216.043,473.6 204.181,490.667ZM309.333,437.333L309.547,437.333L309.333,437.333Z" style="fill-rule:nonzero;"/>
    <path d="M501.333,384L10.667,384C4.779,384 0,379.221 0,373.333C0,367.445 4.779,362.667 10.667,362.667L501.333,362.667C507.221,362.667 512,367.445 512,373.333C512,379.221 507.221,384 501.333,384Z" style="fill-rule:nonzero;"/>
</svg>
